<svg width="78" height="75" viewBox="0 0 78 75" fill="none" xmlns="http://www.w3.org/2000/svg">
<path d="M13.711 0.402954H63.419C65.2015 0.393873 66.9684 0.736354 68.6185 1.4108C70.2686 2.08525 71.7695 3.07843 73.0354 4.33352C74.3012 5.58861 75.3072 7.08097 75.9957 8.72523C76.6842 10.3695 77.0418 12.1334 77.048 13.916V61.289C77.0419 63.0716 76.6845 64.8356 75.996 66.48C75.3075 68.1244 74.3016 69.6168 73.0357 70.872C71.7698 72.1272 70.2689 73.1205 68.6187 73.795C66.9686 74.4695 65.2016 74.812 63.419 74.803H13.711C11.9283 74.812 10.1614 74.4695 8.51121 73.795C6.86106 73.1205 5.36011 72.1272 4.09423 70.872C2.82836 69.6168 1.82241 68.1244 1.13394 66.48C0.445469 64.8356 0.0879945 63.0716 0.0819702 61.289L0.0819702 13.916C0.0881257 12.1334 0.445696 10.3695 1.13422 8.72523C1.82275 7.08097 2.82873 5.58861 4.09459 4.33352C5.36045 3.07843 6.86136 2.08525 8.51144 1.4108C10.1615 0.736354 11.9284 0.393873 13.711 0.402954Z" fill="white"/>
<path d="M37.379 45.152H25.449L23.012 52.688C22.9848 52.8253 22.9072 52.9475 22.7946 53.0306C22.6819 53.1137 22.5422 53.1516 22.403 53.137H16.373C16.02 53.137 15.924 52.945 16.02 52.56L26.347 22.836C26.447 22.515 26.539 22.163 26.668 21.778C26.7969 21.0905 26.8612 20.3924 26.86 19.693C26.8497 19.6124 26.8705 19.531 26.9183 19.4654C26.9661 19.3997 27.0372 19.3549 27.117 19.34H35.423C35.68 19.34 35.808 19.44 35.84 19.597L47.545 52.624C47.645 52.977 47.545 53.137 47.224 53.137H40.524C40.4106 53.1479 40.297 53.1185 40.2032 53.0539C40.1093 52.9893 40.0413 52.8938 40.011 52.784L37.379 45.152ZM27.309 38.642H35.455C35.263 37.969 35.006 37.167 34.717 36.333C34.428 35.467 34.14 34.533 33.851 33.575C33.53 32.581 33.242 31.619 32.921 30.625C32.6 29.631 32.312 28.701 32.055 27.771C31.798 26.871 31.574 26.039 31.349 25.271H31.285C30.9968 26.668 30.6329 28.0484 30.195 29.406C29.714 30.945 29.233 32.549 28.72 34.152C28.271 35.788 27.79 37.295 27.309 38.642Z" fill="#1561EC"/>
<path d="M54.5359 24.819C54.0096 24.8306 53.4862 24.7374 52.9962 24.5447C52.5062 24.3521 52.0595 24.0639 51.682 23.697C50.9472 22.8938 50.5559 21.8349 50.5919 20.747C50.573 20.2168 50.6661 19.6886 50.8651 19.1968C51.0641 18.705 51.3646 18.2607 51.7469 17.893C52.5161 17.1656 53.5364 16.7633 54.595 16.77C55.1328 16.7419 55.6706 16.8273 56.1733 17.0206C56.676 17.2139 57.1325 17.5108 57.513 17.892C58.2056 18.7029 58.5808 19.7375 58.569 20.804C58.5572 21.8704 58.1593 22.8964 57.449 23.692C57.0721 24.077 56.6171 24.3768 56.1146 24.5712C55.6121 24.7656 55.0738 24.8501 54.5359 24.819ZM50.944 52.655V27.962C50.944 27.641 51.072 27.513 51.361 27.513H57.7109C57.9999 27.513 58.128 27.673 58.128 27.962V52.655C58.128 53.008 57.9999 53.168 57.7109 53.168H51.425C51.3576 53.1735 51.2898 53.1637 51.2267 53.1394C51.1636 53.1151 51.1068 53.0769 51.0606 53.0276C51.0144 52.9783 50.9799 52.9191 50.9597 52.8546C50.9395 52.7901 50.9341 52.7218 50.944 52.655Z" fill="#1561EC"/>
</svg>
