<svg width="72" height="61" viewBox="0 0 72 61" fill="none" xmlns="http://www.w3.org/2000/svg">
<path d="M37.362 1.22209L1.155 57.7021C0.96864 57.9925 0.863893 58.3277 0.851772 58.6726C0.839652 59.0174 0.92058 59.3592 1.08609 59.662C1.25159 59.9647 1.49557 60.2174 1.79239 60.3934C2.0892 60.5693 2.42791 60.6622 2.77298 60.6621H15.763C16.0576 60.6614 16.348 60.5929 16.612 60.4621L41.197 48.3531C41.519 48.1944 41.7902 47.9487 41.9799 47.6438C42.1695 47.339 42.27 46.9871 42.27 46.6281V46.4571C42.27 46.2047 42.2202 45.9548 42.1237 45.7216C42.0271 45.4884 41.8855 45.2765 41.707 45.098C41.5286 44.9196 41.3167 44.778 41.0835 44.6814C40.8503 44.5848 40.6004 44.5351 40.348 44.5351H34.5579C34.3235 44.5349 34.091 44.5776 33.872 44.6611L27.416 47.1261C27.1826 47.2148 26.9272 47.2276 26.6861 47.1627C26.4451 47.0977 26.2306 46.9584 26.0734 46.7644C25.9161 46.5705 25.8241 46.3319 25.8104 46.0826C25.7967 45.8334 25.862 45.5861 25.997 45.3761L37.408 27.6761C37.5825 27.4054 37.8223 27.1829 38.1053 27.0291C38.3882 26.8753 38.7053 26.795 39.0274 26.7957C39.3494 26.7964 39.6662 26.8781 39.9485 27.0331C40.2308 27.1882 40.4696 27.4117 40.643 27.6831L55.449 50.8491C55.6228 51.1211 55.8623 51.3449 56.1454 51.4999C56.4286 51.655 56.7462 51.7362 57.069 51.7361H69.469C69.814 51.7362 70.1527 51.6433 70.4496 51.4674C70.7464 51.2914 70.9903 51.0387 71.1559 50.736C71.3214 50.4332 71.4023 50.0914 71.3902 49.7466C71.3781 49.4017 71.2733 49.0665 71.087 48.7761L40.596 1.21609C40.4221 0.94461 40.1827 0.721228 39.8999 0.566505C39.6171 0.411783 39.2999 0.330688 38.9775 0.330688C38.6551 0.330688 38.3379 0.411783 38.055 0.566505C37.7722 0.721228 37.5328 0.94461 37.359 1.21609" fill="#1561EC"/>
<path d="M38.2899 34.3591L35.2379 39.0301C35.1419 39.1771 35.0874 39.3474 35.0802 39.5229C35.0729 39.6984 35.1132 39.8726 35.1968 40.0271C35.2804 40.1816 35.4042 40.3106 35.5551 40.4005C35.7059 40.4905 35.8783 40.538 36.0539 40.5381H42.1169C42.2916 40.5376 42.4629 40.4902 42.613 40.4009C42.7631 40.3116 42.8864 40.1836 42.9701 40.0303C43.0538 39.877 43.0948 39.7041 43.0888 39.5295C43.0828 39.355 43.03 39.1852 42.9359 39.0381L39.9249 34.3671C39.8368 34.2306 39.716 34.1183 39.5735 34.0404C39.431 33.9625 39.2712 33.9214 39.1088 33.9209C38.9464 33.9204 38.7864 33.9605 38.6434 34.0375C38.5004 34.1146 38.3789 34.2261 38.2899 34.3621" fill="#1561EC"/>
</svg>
