<svg width="77" height="75" viewBox="0 0 77 75" fill="none" xmlns="http://www.w3.org/2000/svg">
<path d="M13.56 0.402954H62.841C64.616 0.401376 66.3738 0.74983 68.0139 1.42837C69.6541 2.10692 71.1443 3.10223 72.3993 4.35736C73.6543 5.61249 74.6495 7.10278 75.328 8.74296C76.0064 10.3831 76.3547 12.141 76.353 13.916V61.289C76.3548 63.064 76.0066 64.822 75.3283 66.4623C74.6499 68.1026 73.6547 69.593 72.3997 70.8482C71.1446 72.1034 69.6544 73.0988 68.0142 73.7774C66.374 74.456 64.616 74.8045 62.841 74.803H13.56C11.7849 74.8047 10.0269 74.4563 8.38655 73.7777C6.74624 73.0992 5.25585 72.1038 4.0007 70.8486C2.74555 69.5933 1.75028 68.1028 1.07185 66.4625C0.393422 64.8221 0.0451626 63.0641 0.0470043 61.289V13.916C0.0452942 12.1409 0.393651 10.383 1.07214 8.74273C1.75062 7.10249 2.74592 5.61214 4.00106 4.35701C5.2562 3.10187 6.74654 2.10657 8.38678 1.42809C10.027 0.749601 11.785 0.401244 13.56 0.402954Z" fill="white"/>
<path d="M17.216 52.578V19.862C17.216 19.639 17.316 19.512 17.534 19.512C18.075 19.512 18.583 19.512 19.314 19.48C20.077 19.448 20.872 19.448 21.73 19.416C22.588 19.384 23.51 19.3839 24.496 19.3519C25.482 19.3199 26.435 19.32 27.389 19.32C29.6136 19.2562 31.8317 19.5901 33.939 20.306C35.5349 20.848 36.9901 21.7385 38.199 22.913C39.2236 23.9409 40.0152 25.1772 40.52 26.538C41.0012 27.8629 41.2486 29.2613 41.251 30.6709C41.3472 33.0733 40.6792 35.4442 39.343 37.443C38.0657 39.2204 36.2825 40.5717 34.226 41.321C31.9238 42.1004 29.5018 42.4664 27.072 42.402C26.309 42.402 25.8 42.402 25.482 42.37C25.164 42.338 24.719 42.3379 24.115 42.3379V52.546C24.1213 52.5982 24.1172 52.6511 24.103 52.7017C24.0888 52.7524 24.0648 52.7997 24.0323 52.841C23.9998 52.8824 23.9594 52.9169 23.9136 52.9426C23.8677 52.9683 23.8172 52.9848 23.765 52.991H17.598C17.343 52.991 17.216 52.864 17.216 52.578ZM24.147 25.648V36.331C24.592 36.363 25.005 36.3949 25.387 36.3949H27.072C28.3135 36.3959 29.5475 36.2022 30.729 35.821C31.7425 35.5229 32.648 34.9377 33.336 34.136C34.0463 33.1976 34.3962 32.0355 34.322 30.861C34.3521 29.8673 34.0985 28.8857 33.591 28.031C33.0601 27.2061 32.28 26.572 31.364 26.221C30.1703 25.7534 28.8931 25.5369 27.612 25.585C26.785 25.585 26.054 25.5849 25.45 25.6169C25.0166 25.5888 24.5815 25.5995 24.15 25.649L24.147 25.648Z" fill="#1561EC"/>
<path d="M61.092 34.392C60.1321 33.8864 59.1041 33.5223 58.04 33.311C56.8712 33.0464 55.6773 32.9079 54.479 32.8979C53.8354 32.8759 53.1921 32.951 52.571 33.1209C52.1749 33.2035 51.8235 33.4301 51.585 33.757C51.4245 34.0148 51.3368 34.3113 51.331 34.615C51.3457 34.9176 51.4571 35.2075 51.649 35.442C51.9504 35.7952 52.3175 36.0866 52.73 36.2999C53.461 36.6819 54.224 37.031 54.987 37.349C56.706 37.927 58.3507 38.706 59.887 39.67C60.9312 40.3265 61.7947 41.2337 62.399 42.309C62.9099 43.3233 63.1611 44.4486 63.13 45.584C63.1557 47.0868 62.7232 48.5619 61.89 49.813C61.0032 51.0822 59.7657 52.0657 58.329 52.643C56.499 53.3672 54.5413 53.7132 52.574 53.66C51.1225 53.6659 49.6741 53.5276 48.25 53.247C47.1286 53.0533 46.0381 52.7113 45.007 52.2299C44.8958 52.1758 44.8033 52.0899 44.741 51.9831C44.6787 51.8763 44.6494 51.7534 44.657 51.63V46.098C44.6541 46.0436 44.6641 45.9894 44.6862 45.9397C44.7083 45.89 44.7418 45.8462 44.784 45.812C44.8288 45.786 44.8808 45.7751 44.9323 45.7808C44.9837 45.7866 45.032 45.8087 45.07 45.844C46.2946 46.566 47.6247 47.0917 49.012 47.402C50.2371 47.7208 51.4981 47.8811 52.764 47.879C53.6658 47.9288 54.5674 47.7768 55.403 47.434C55.6582 47.3161 55.8745 47.1279 56.0265 46.8915C56.1785 46.655 56.2598 46.3801 56.261 46.099C56.2393 45.8428 56.1592 45.595 56.027 45.3745C55.8947 45.154 55.7138 44.9667 55.498 44.827C54.5277 44.1974 53.4804 43.6952 52.382 43.333C50.7837 42.7699 49.2659 42.0003 47.867 41.044C46.8711 40.3345 46.0458 39.4122 45.451 38.344C44.9436 37.3398 44.6925 36.2257 44.72 35.101C44.7247 33.7443 45.0984 32.4145 45.801 31.254C46.6086 29.9777 47.7677 28.9619 49.139 28.3289C50.8993 27.5177 52.8261 27.133 54.763 27.206C56.0821 27.2063 57.3996 27.3019 58.705 27.492C59.6436 27.6189 60.5623 27.8645 61.439 28.223C61.5082 28.2474 61.5719 28.2852 61.6265 28.3343C61.681 28.3834 61.7254 28.4427 61.757 28.5089C61.7937 28.6332 61.8152 28.7615 61.821 28.891V34.073C61.8215 34.1348 61.8074 34.1958 61.7797 34.2511C61.7521 34.3063 61.7117 34.3543 61.662 34.391C61.4778 34.4571 61.2764 34.4575 61.092 34.392Z" fill="#1561EC"/>
</svg>
