<svg width="79" height="77" viewBox="0 0 79 77" fill="none" xmlns="http://www.w3.org/2000/svg">
<path d="M14.009 0.16101H64.639C66.4629 0.158906 68.2693 0.516535 69.9549 1.21343C71.6404 1.91032 73.172 2.93279 74.4618 4.22231C75.7517 5.51183 76.7747 7.04309 77.472 8.72843C78.1694 10.4138 78.5276 12.2201 78.526 14.044V62.714C78.5276 64.5379 78.1694 66.3443 77.472 68.0296C76.7747 69.7149 75.7517 71.2462 74.4618 72.5357C73.172 73.8252 71.6404 74.8477 69.9549 75.5446C68.2693 76.2415 66.4629 76.5991 64.639 76.597H14.009C12.1854 76.5986 10.3794 76.2406 8.69432 75.5434C7.00924 74.8463 5.47816 73.8238 4.18869 72.5343C2.89922 71.2448 1.87667 69.7137 1.17954 68.0287C0.482417 66.3436 0.1244 64.5376 0.125978 62.714V14.044C0.1244 12.2204 0.482417 10.4144 1.17954 8.72935C1.87667 7.04427 2.89922 5.5132 4.18869 4.22373C5.47816 2.93426 7.00924 1.9117 8.69432 1.21458C10.3794 0.517449 12.1854 0.159432 14.009 0.16101Z" fill="white"/>
<path d="M41.349 20.25L31.549 36.419L42.002 53.568C42.0707 53.6864 42.0938 53.8258 42.067 53.96C42.034 54.091 41.904 53.993 41.708 54.025H34.228C33.705 54.025 33.346 53.992 33.117 53.666C32.431 52.294 31.717 50.955 31.026 49.583C30.34 48.244 29.589 46.872 28.805 45.467C28.021 44.062 27.237 42.658 26.453 41.221H26.385C25.699 42.621 24.948 44.03 24.196 45.435C23.444 46.84 22.696 48.244 21.975 49.616C21.224 50.988 20.475 52.393 19.721 53.732C19.59 54.059 19.329 54.091 18.97 54.091H11.785C11.654 54.091 11.556 54.156 11.556 53.991C11.5414 53.9299 11.5396 53.8665 11.5508 53.8047C11.562 53.7429 11.5859 53.6841 11.621 53.632L21.785 36.974L11.885 20.217C11.785 20.086 11.754 19.956 11.82 19.89C11.8599 19.8435 11.9105 19.8074 11.9675 19.7848C12.0244 19.7621 12.086 19.7536 12.147 19.76H19.562C19.7164 19.7633 19.8698 19.7851 20.019 19.825C20.15 19.8954 20.2621 19.9962 20.346 20.119C20.967 21.519 21.685 22.928 22.437 24.333C23.221 25.733 23.972 27.11 24.789 28.481C25.573 29.853 26.289 31.225 26.978 32.629H27.043C27.729 31.192 28.443 29.787 29.166 28.415C29.889 27.043 30.636 25.671 31.387 24.299C32.138 22.927 32.857 21.522 33.576 20.183C33.6017 20.0537 33.6726 19.9378 33.776 19.856C33.9054 19.7846 34.0561 19.7616 34.201 19.791H41.085C41.1236 19.7823 41.1635 19.7814 41.2025 19.7882C41.2415 19.795 41.2788 19.8095 41.3121 19.8308C41.3455 19.8521 41.3743 19.8797 41.397 19.9122C41.4196 19.9447 41.4356 19.9813 41.444 20.02C41.477 20.053 41.411 20.183 41.344 20.249L41.349 20.25Z" fill="#1561EC"/>
<path d="M56.44 54.712C54.0186 54.7518 51.6191 54.2495 49.417 53.242C47.3684 52.2839 45.6514 50.7376 44.485 48.8C43.2106 46.5304 42.5877 43.9531 42.685 41.352C42.653 38.9345 43.2749 36.5532 44.485 34.46C45.7246 32.3322 47.5202 30.5819 49.679 29.397C52.2249 28.0653 55.0712 27.4127 57.943 27.502C58.1721 27.4995 58.4012 27.5105 58.629 27.535C58.923 27.568 59.25 27.568 59.642 27.6V17.278C59.642 17.049 59.742 16.919 59.969 16.919H66.6C66.6733 16.9088 66.7478 16.9267 66.8085 16.9692C66.8692 17.0117 66.9115 17.0756 66.927 17.148V48.31C66.927 48.898 66.96 49.551 66.992 50.27C67.057 50.956 67.092 51.609 67.123 52.165C67.1297 52.2754 67.1018 52.3851 67.0432 52.4789C66.9846 52.5726 66.8981 52.6457 66.796 52.688C65.0851 53.4071 63.2994 53.933 61.472 54.256C59.8112 54.5551 58.1274 54.7077 56.44 54.712ZM59.64 48.179V33.806C59.3491 33.7359 59.0547 33.6815 58.758 33.643C58.399 33.61 58.039 33.578 57.68 33.578C56.3996 33.5636 55.1343 33.8546 53.989 34.427C52.8726 34.983 51.9167 35.815 51.212 36.844C50.4423 38.0862 50.0665 39.5322 50.134 40.992C50.1054 42.1383 50.2937 43.2797 50.689 44.356C51.005 45.2265 51.5066 46.0178 52.159 46.675C52.7886 47.2762 53.5487 47.7235 54.38 47.982C55.2549 48.2687 56.1703 48.4122 57.091 48.407C57.581 48.407 58.038 48.374 58.463 48.342C58.8631 48.371 59.2648 48.3155 59.642 48.179H59.64Z" fill="#1561EC"/>
</svg>
