<svg width="56" height="56" viewBox="0 0 56 56" fill="none" xmlns="http://www.w3.org/2000/svg">
<path d="M47 17H10V43H47V17Z" fill="white"/>
<path d="M46.5 17.5H10.5V42.5H46.5V17.5Z" stroke="#707070"/>
<path d="M28 0.359985C22.5333 0.359985 17.1894 1.98104 12.644 5.01817C8.09866 8.05529 4.55597 12.3721 2.46397 17.4226C0.371961 22.4732 -0.175403 28.0306 0.891093 33.3923C1.95759 38.7539 4.59004 43.6789 8.45557 47.5444C12.3211 51.4099 17.2461 54.0424 22.6077 55.1089C27.9693 56.1754 33.5268 55.628 38.5774 53.536C43.6279 51.444 47.9447 47.9013 50.9818 43.3559C54.0189 38.8106 55.64 33.4667 55.64 28C55.6403 24.3702 54.9255 20.7759 53.5366 17.4223C52.1476 14.0687 50.1117 11.0216 47.545 8.45497C44.9783 5.8883 41.9312 3.85237 38.5777 2.46342C35.2241 1.07447 31.6298 0.359723 28 0.359985V0.359985ZM42.532 26.985L30.44 39.077C30.1198 39.3981 29.7393 39.653 29.3205 39.8268C28.9016 40.0007 28.4525 40.0902 27.999 40.0902C27.5455 40.0902 27.0964 40.0007 26.6775 39.8268C26.2587 39.653 25.8782 39.3981 25.558 39.077L13.465 26.988C12.8242 26.3386 12.4662 25.4621 12.4692 24.5497C12.4723 23.6374 12.8361 22.7633 13.4812 22.1182C14.1263 21.473 15.0004 21.1093 15.9128 21.1062C16.8251 21.1032 17.7016 21.4612 18.351 22.102L28 31.76L37.65 22.11C37.9687 21.7822 38.3493 21.5211 38.7698 21.3417C39.1902 21.1623 39.6422 21.0682 40.0993 21.0649C40.5564 21.0616 41.0096 21.1492 41.4326 21.3225C41.8556 21.4958 42.24 21.7515 42.5634 22.0746C42.8867 22.3977 43.1427 22.7818 43.3164 23.2047C43.4901 23.6276 43.578 24.0807 43.5751 24.5378C43.5722 24.995 43.4784 25.447 43.2994 25.8676C43.1203 26.2882 42.8595 26.669 42.532 26.988V26.985Z" fill="#1561EC"/>
</svg>
