<svg width="45" height="44" viewBox="0 0 45 44" fill="none" xmlns="http://www.w3.org/2000/svg">
<path d="M39.64 0H5.64001C2.87859 0 0.640015 2.23858 0.640015 5V39C0.640015 41.7614 2.87859 44 5.64001 44H39.64C42.4014 44 44.64 41.7614 44.64 39V5C44.64 2.23858 42.4014 0 39.64 0Z" fill="#1561EC"/>
<path d="M10.0699 15.715C10.0699 14.8817 10.401 14.0825 10.9902 13.4933C11.5795 12.904 12.3786 12.573 13.2119 12.573H32.0699C32.9031 12.5735 33.702 12.9047 34.2911 13.4939C34.8802 14.083 35.2114 14.8818 35.2119 15.715V28.285C35.2114 29.1182 34.8802 29.9172 34.2912 30.5065C33.7021 31.0958 32.9032 31.4272 32.0699 31.428H13.2119C12.3786 31.4275 11.5796 31.0961 10.9904 30.5068C10.4013 29.9174 10.0702 29.1183 10.0699 28.285V15.715ZM12.4269 15.715V16.8L20.8969 23.753C21.3877 24.1576 22.0039 24.3789 22.6399 24.3789C23.276 24.3789 23.8922 24.1576 24.3829 23.753L32.8529 16.8V15.673C32.8453 15.4674 32.7605 15.2722 32.6154 15.1263C32.4703 14.9805 32.2755 14.8947 32.0699 14.886H13.2119C13.0059 14.8937 12.8104 14.979 12.6647 15.1247C12.5189 15.2705 12.4336 15.466 12.4259 15.672L12.4269 15.715ZM12.4269 19.849V28.285C12.4272 28.4934 12.5101 28.6931 12.6575 28.8405C12.8048 28.9878 13.0046 29.0707 13.2129 29.071H32.0699C32.2782 29.0705 32.4779 28.9875 32.6251 28.8402C32.7724 28.6929 32.8554 28.4933 32.8559 28.285V19.85L25.8799 25.573C24.958 26.3234 23.8056 26.7331 22.6169 26.7331C21.4282 26.7331 20.2759 26.3234 19.3539 25.573L12.4269 19.849Z" fill="white"/>
</svg>
